<?xml version="1.0" encoding="UTF-8" standalone="no"?>
<!DOCTYPE svg PUBLIC "-//W3C//DTD SVG 1.1//EN"
 "http://www.w3.org/Graphics/SVG/1.1/DTD/svg11.dtd">
<!-- Generated by graphviz version 2.47.0 (20210316.0004)
 -->
<!-- Title: dbml Pages: 1 -->
<svg width="1894pt" height="2083pt"
 viewBox="0.00 0.00 1894.44 2083.35" xmlns="http://www.w3.org/2000/svg" xmlns:xlink="http://www.w3.org/1999/xlink">
<g id="graph0" class="graph" transform="scale(1 1) rotate(0) translate(4 2079.35)">
<title>dbml</title>
<!-- friendship_status -->
<g id="friendship_status" class="node">
<title>friendship_status</title>
<ellipse fill="none" stroke="black" stroke-width="0" cx="989.18" cy="-705.39" rx="277.37" ry="172.57"/>
<polygon fill="#29235c" stroke="transparent" points="795.18,-765.39 795.18,-825.39 1183.18,-825.39 1183.18,-765.39 795.18,-765.39"/>
<polygon fill="none" stroke="#29235c" points="795.18,-765.39 795.18,-825.39 1183.18,-825.39 1183.18,-765.39 795.18,-765.39"/>
<text text-anchor="start" x="806.01" y="-786.59" font-family="Helvetica,sans-Serif" font-weight="bold" font-size="32.00" fill="#ffffff"> &#160;&#160;&#160;&#160;&#160;&#160;friendship_status &#160;&#160;&#160;&#160;&#160;&#160;</text>
<polygon fill="#e7e2dd" stroke="transparent" points="795.18,-705.39 795.18,-765.39 1183.18,-765.39 1183.18,-705.39 795.18,-705.39"/>
<polygon fill="none" stroke="#29235c" points="795.18,-705.39 795.18,-765.39 1183.18,-765.39 1183.18,-705.39 795.18,-705.39"/>
<text text-anchor="start" x="896.69" y="-726.59" font-family="Helvetica,sans-Serif" font-style="italic" font-size="32.00" fill="#1d71b8"> &#160;&#160;&#160;pending &#160;&#160;&#160;</text>
<polygon fill="#e7e2dd" stroke="transparent" points="795.18,-645.39 795.18,-705.39 1183.18,-705.39 1183.18,-645.39 795.18,-645.39"/>
<polygon fill="none" stroke="#29235c" points="795.18,-645.39 795.18,-705.39 1183.18,-705.39 1183.18,-645.39 795.18,-645.39"/>
<text text-anchor="start" x="888.69" y="-666.59" font-family="Helvetica,sans-Serif" font-style="italic" font-size="32.00" fill="#1d71b8"> &#160;&#160;&#160;accepted &#160;&#160;&#160;</text>
<polygon fill="#e7e2dd" stroke="transparent" points="795.18,-585.39 795.18,-645.39 1183.18,-645.39 1183.18,-585.39 795.18,-585.39"/>
<polygon fill="none" stroke="#29235c" points="795.18,-585.39 795.18,-645.39 1183.18,-645.39 1183.18,-585.39 795.18,-585.39"/>
<text text-anchor="start" x="898.48" y="-606.59" font-family="Helvetica,sans-Serif" font-style="italic" font-size="32.00" fill="#1d71b8"> &#160;&#160;&#160;blocked &#160;&#160;&#160;</text>
<polygon fill="none" stroke="#29235c" stroke-width="2" points="794.18,-584.39 794.18,-826.39 1184.18,-826.39 1184.18,-584.39 794.18,-584.39"/>
</g>
<!-- friendships -->
<g id="friendships" class="node">
<title>friendships</title>
<ellipse fill="none" stroke="black" stroke-width="0" cx="301.23" cy="-1370.39" rx="301.46" ry="257.27"/>
<polygon fill="#1d71b8" stroke="transparent" points="90.23,-1490.39 90.23,-1550.39 512.23,-1550.39 512.23,-1490.39 90.23,-1490.39"/>
<polygon fill="none" stroke="#29235c" points="90.23,-1490.39 90.23,-1550.39 512.23,-1550.39 512.23,-1490.39 90.23,-1490.39"/>
<text text-anchor="start" x="161.63" y="-1511.59" font-family="Helvetica,sans-Serif" font-weight="bold" font-size="32.00" fill="#ffffff"> &#160;&#160;&#160;&#160;&#160;&#160;friendships &#160;&#160;&#160;&#160;&#160;&#160;</text>
<polygon fill="#e7e2dd" stroke="transparent" points="90.23,-1430.39 90.23,-1490.39 512.23,-1490.39 512.23,-1430.39 90.23,-1430.39"/>
<polygon fill="none" stroke="#29235c" points="90.23,-1430.39 90.23,-1490.39 512.23,-1490.39 512.23,-1430.39 90.23,-1430.39"/>
<text text-anchor="start" x="101.23" y="-1451.59" font-family="Helvetica,sans-Serif" font-weight="bold" font-size="32.00" fill="#29235c">id</text>
<text text-anchor="start" x="126.12" y="-1451.59" font-family="Helvetica,sans-Serif" font-size="32.00" fill="#29235c"> &#160;&#160;&#160;</text>
<text text-anchor="start" x="385.7" y="-1451.59" font-family="Helvetica,sans-Serif" font-style="italic" font-size="32.00" fill="#29235c">serial</text>
<text text-anchor="start" x="462.14" y="-1451.59" font-family="Helvetica,sans-Serif" font-size="32.00" fill="#29235c"> </text>
<text text-anchor="start" x="471.03" y="-1451.59" font-family="Helvetica,sans-Serif" font-weight="bold" font-size="32.00" fill="#29235c">(!)</text>
<polygon fill="#e7e2dd" stroke="transparent" points="90.23,-1370.39 90.23,-1430.39 512.23,-1430.39 512.23,-1370.39 90.23,-1370.39"/>
<polygon fill="none" stroke="#29235c" points="90.23,-1370.39 90.23,-1430.39 512.23,-1430.39 512.23,-1370.39 90.23,-1370.39"/>
<text text-anchor="start" x="101.23" y="-1390.59" font-family="Helvetica,sans-Serif" font-size="32.00" fill="#29235c">user_id &#160;&#160;&#160;</text>
<text text-anchor="start" x="364.33" y="-1391.59" font-family="Helvetica,sans-Serif" font-style="italic" font-size="32.00" fill="#29235c">integer</text>
<text text-anchor="start" x="462.14" y="-1391.59" font-family="Helvetica,sans-Serif" font-size="32.00" fill="#29235c"> </text>
<text text-anchor="start" x="471.03" y="-1391.59" font-family="Helvetica,sans-Serif" font-weight="bold" font-size="32.00" fill="#29235c">(!)</text>
<polygon fill="#e7e2dd" stroke="transparent" points="90.23,-1310.39 90.23,-1370.39 512.23,-1370.39 512.23,-1310.39 90.23,-1310.39"/>
<polygon fill="none" stroke="#29235c" points="90.23,-1310.39 90.23,-1370.39 512.23,-1370.39 512.23,-1310.39 90.23,-1310.39"/>
<text text-anchor="start" x="101.23" y="-1330.59" font-family="Helvetica,sans-Serif" font-size="32.00" fill="#29235c">friend_id &#160;&#160;&#160;</text>
<text text-anchor="start" x="364.33" y="-1331.59" font-family="Helvetica,sans-Serif" font-style="italic" font-size="32.00" fill="#29235c">integer</text>
<text text-anchor="start" x="462.14" y="-1331.59" font-family="Helvetica,sans-Serif" font-size="32.00" fill="#29235c"> </text>
<text text-anchor="start" x="471.03" y="-1331.59" font-family="Helvetica,sans-Serif" font-weight="bold" font-size="32.00" fill="#29235c">(!)</text>
<polygon fill="#e7e2dd" stroke="transparent" points="90.23,-1250.39 90.23,-1310.39 512.23,-1310.39 512.23,-1250.39 90.23,-1250.39"/>
<polygon fill="none" stroke="#29235c" points="90.23,-1250.39 90.23,-1310.39 512.23,-1310.39 512.23,-1250.39 90.23,-1250.39"/>
<text text-anchor="start" x="100.76" y="-1270.59" font-family="Helvetica,sans-Serif" font-size="32.00" fill="#29235c">status &#160;&#160;&#160;</text>
<text text-anchor="start" x="220.76" y="-1271.59" font-family="Helvetica,sans-Serif" font-style="italic" font-size="32.00" fill="#29235c">friendship_status</text>
<text text-anchor="start" x="462.6" y="-1271.59" font-family="Helvetica,sans-Serif" font-size="32.00" fill="#29235c"> </text>
<text text-anchor="start" x="471.5" y="-1271.59" font-family="Helvetica,sans-Serif" font-weight="bold" font-size="32.00" fill="#29235c">(!)</text>
<polygon fill="#e7e2dd" stroke="transparent" points="90.23,-1190.39 90.23,-1250.39 512.23,-1250.39 512.23,-1190.39 90.23,-1190.39"/>
<polygon fill="none" stroke="#29235c" points="90.23,-1190.39 90.23,-1250.39 512.23,-1250.39 512.23,-1190.39 90.23,-1190.39"/>
<text text-anchor="start" x="101.23" y="-1210.59" font-family="Helvetica,sans-Serif" font-size="32.00" fill="#29235c">created_at &#160;&#160;&#160;</text>
<text text-anchor="start" x="314.58" y="-1211.59" font-family="Helvetica,sans-Serif" font-style="italic" font-size="32.00" fill="#29235c">timestamp</text>
<text text-anchor="start" x="462.14" y="-1211.59" font-family="Helvetica,sans-Serif" font-size="32.00" fill="#29235c"> </text>
<text text-anchor="start" x="471.03" y="-1211.59" font-family="Helvetica,sans-Serif" font-weight="bold" font-size="32.00" fill="#29235c">(!)</text>
<polygon fill="none" stroke="#29235c" stroke-width="2" points="89.23,-1189.39 89.23,-1551.39 513.23,-1551.39 513.23,-1189.39 89.23,-1189.39"/>
</g>
<!-- friendships&#45;&gt;friendship_status -->
<g id="edge13" class="edge">
<title>friendships:e&#45;&gt;friendship_status:w</title>
<path fill="none" stroke="#29235c" stroke-width="3" d="M513.23,-1280.39C696.97,-1280.39 523.66,-1029.85 638.45,-886.39 688.54,-823.8 714.02,-795.39 794.18,-795.39"/>
</g>
<!-- users -->
<g id="users" class="node">
<title>users</title>
<ellipse fill="none" stroke="black" stroke-width="0" cx="989.18" cy="-1280.39" rx="350.95" ry="384.83"/>
<polygon fill="#1d71b8" stroke="transparent" points="743.18,-1490.39 743.18,-1550.39 1235.18,-1550.39 1235.18,-1490.39 743.18,-1490.39"/>
<polygon fill="none" stroke="#29235c" points="743.18,-1490.39 743.18,-1550.39 1235.18,-1550.39 1235.18,-1490.39 743.18,-1490.39"/>
<text text-anchor="start" x="887.82" y="-1511.59" font-family="Helvetica,sans-Serif" font-weight="bold" font-size="32.00" fill="#ffffff"> &#160;&#160;&#160;&#160;&#160;&#160;users &#160;&#160;&#160;&#160;&#160;&#160;</text>
<polygon fill="#e7e2dd" stroke="transparent" points="743.18,-1430.39 743.18,-1490.39 1235.18,-1490.39 1235.18,-1430.39 743.18,-1430.39"/>
<polygon fill="none" stroke="#29235c" points="743.18,-1430.39 743.18,-1490.39 1235.18,-1490.39 1235.18,-1430.39 743.18,-1430.39"/>
<text text-anchor="start" x="754.18" y="-1451.59" font-family="Helvetica,sans-Serif" font-weight="bold" font-size="32.00" fill="#29235c">id</text>
<text text-anchor="start" x="779.07" y="-1451.59" font-family="Helvetica,sans-Serif" font-size="32.00" fill="#29235c"> &#160;&#160;&#160;</text>
<text text-anchor="start" x="1108.66" y="-1451.59" font-family="Helvetica,sans-Serif" font-style="italic" font-size="32.00" fill="#29235c">serial</text>
<text text-anchor="start" x="1185.09" y="-1451.59" font-family="Helvetica,sans-Serif" font-size="32.00" fill="#29235c"> </text>
<text text-anchor="start" x="1193.98" y="-1451.59" font-family="Helvetica,sans-Serif" font-weight="bold" font-size="32.00" fill="#29235c">(!)</text>
<polygon fill="#e7e2dd" stroke="transparent" points="743.18,-1370.39 743.18,-1430.39 1235.18,-1430.39 1235.18,-1370.39 743.18,-1370.39"/>
<polygon fill="none" stroke="#29235c" points="743.18,-1370.39 743.18,-1430.39 1235.18,-1430.39 1235.18,-1370.39 743.18,-1370.39"/>
<text text-anchor="start" x="754.18" y="-1390.59" font-family="Helvetica,sans-Serif" font-size="32.00" fill="#29235c">username &#160;&#160;&#160;</text>
<text text-anchor="start" x="1021.53" y="-1391.59" font-family="Helvetica,sans-Serif" font-style="italic" font-size="32.00" fill="#29235c">varchar(50)</text>
<text text-anchor="start" x="1185.09" y="-1391.59" font-family="Helvetica,sans-Serif" font-size="32.00" fill="#29235c"> </text>
<text text-anchor="start" x="1193.98" y="-1391.59" font-family="Helvetica,sans-Serif" font-weight="bold" font-size="32.00" fill="#29235c">(!)</text>
<polygon fill="#e7e2dd" stroke="transparent" points="743.18,-1310.39 743.18,-1370.39 1235.18,-1370.39 1235.18,-1310.39 743.18,-1310.39"/>
<polygon fill="none" stroke="#29235c" points="743.18,-1310.39 743.18,-1370.39 1235.18,-1370.39 1235.18,-1310.39 743.18,-1310.39"/>
<text text-anchor="start" x="754.18" y="-1330.59" font-family="Helvetica,sans-Serif" font-size="32.00" fill="#29235c">email &#160;&#160;&#160;</text>
<text text-anchor="start" x="1003.74" y="-1331.59" font-family="Helvetica,sans-Serif" font-style="italic" font-size="32.00" fill="#29235c">varchar(100)</text>
<text text-anchor="start" x="1185.09" y="-1331.59" font-family="Helvetica,sans-Serif" font-size="32.00" fill="#29235c"> </text>
<text text-anchor="start" x="1193.98" y="-1331.59" font-family="Helvetica,sans-Serif" font-weight="bold" font-size="32.00" fill="#29235c">(!)</text>
<polygon fill="#e7e2dd" stroke="transparent" points="743.18,-1250.39 743.18,-1310.39 1235.18,-1310.39 1235.18,-1250.39 743.18,-1250.39"/>
<polygon fill="none" stroke="#29235c" points="743.18,-1250.39 743.18,-1310.39 1235.18,-1310.39 1235.18,-1250.39 743.18,-1250.39"/>
<text text-anchor="start" x="754.18" y="-1270.59" font-family="Helvetica,sans-Serif" font-size="32.00" fill="#29235c">password &#160;&#160;&#160;</text>
<text text-anchor="start" x="1003.74" y="-1271.59" font-family="Helvetica,sans-Serif" font-style="italic" font-size="32.00" fill="#29235c">varchar(255)</text>
<text text-anchor="start" x="1185.09" y="-1271.59" font-family="Helvetica,sans-Serif" font-size="32.00" fill="#29235c"> </text>
<text text-anchor="start" x="1193.98" y="-1271.59" font-family="Helvetica,sans-Serif" font-weight="bold" font-size="32.00" fill="#29235c">(!)</text>
<polygon fill="#e7e2dd" stroke="transparent" points="743.18,-1190.39 743.18,-1250.39 1235.18,-1250.39 1235.18,-1190.39 743.18,-1190.39"/>
<polygon fill="none" stroke="#29235c" points="743.18,-1190.39 743.18,-1250.39 1235.18,-1250.39 1235.18,-1190.39 743.18,-1190.39"/>
<text text-anchor="start" x="754.18" y="-1210.59" font-family="Helvetica,sans-Serif" font-size="32.00" fill="#29235c">date_of_birth &#160;&#160;&#160;</text>
<text text-anchor="start" x="1122.83" y="-1211.59" font-family="Helvetica,sans-Serif" font-style="italic" font-size="32.00" fill="#29235c">date</text>
<text text-anchor="start" x="1185.09" y="-1211.59" font-family="Helvetica,sans-Serif" font-size="32.00" fill="#29235c"> </text>
<text text-anchor="start" x="1193.98" y="-1211.59" font-family="Helvetica,sans-Serif" font-weight="bold" font-size="32.00" fill="#29235c">(!)</text>
<polygon fill="#e7e2dd" stroke="transparent" points="743.18,-1130.39 743.18,-1190.39 1235.18,-1190.39 1235.18,-1130.39 743.18,-1130.39"/>
<polygon fill="none" stroke="#29235c" points="743.18,-1130.39 743.18,-1190.39 1235.18,-1190.39 1235.18,-1130.39 743.18,-1130.39"/>
<text text-anchor="start" x="753.77" y="-1150.59" font-family="Helvetica,sans-Serif" font-size="32.00" fill="#29235c">profile_picture_url &#160;&#160;&#160;</text>
<text text-anchor="start" x="1043.01" y="-1151.59" font-family="Helvetica,sans-Serif" font-style="italic" font-size="32.00" fill="#29235c">varchar(500)</text>
<polygon fill="#e7e2dd" stroke="transparent" points="743.18,-1070.39 743.18,-1130.39 1235.18,-1130.39 1235.18,-1070.39 743.18,-1070.39"/>
<polygon fill="none" stroke="#29235c" points="743.18,-1070.39 743.18,-1130.39 1235.18,-1130.39 1235.18,-1070.39 743.18,-1070.39"/>
<text text-anchor="start" x="754.18" y="-1090.59" font-family="Helvetica,sans-Serif" font-size="32.00" fill="#29235c">roles_id &#160;&#160;&#160;</text>
<text text-anchor="start" x="1087.29" y="-1091.59" font-family="Helvetica,sans-Serif" font-style="italic" font-size="32.00" fill="#29235c">integer</text>
<text text-anchor="start" x="1185.09" y="-1091.59" font-family="Helvetica,sans-Serif" font-size="32.00" fill="#29235c"> </text>
<text text-anchor="start" x="1193.98" y="-1091.59" font-family="Helvetica,sans-Serif" font-weight="bold" font-size="32.00" fill="#29235c">(!)</text>
<polygon fill="#e7e2dd" stroke="transparent" points="743.18,-1010.39 743.18,-1070.39 1235.18,-1070.39 1235.18,-1010.39 743.18,-1010.39"/>
<polygon fill="none" stroke="#29235c" points="743.18,-1010.39 743.18,-1070.39 1235.18,-1070.39 1235.18,-1010.39 743.18,-1010.39"/>
<text text-anchor="start" x="754.18" y="-1030.59" font-family="Helvetica,sans-Serif" font-size="32.00" fill="#29235c">created_at &#160;&#160;&#160;</text>
<text text-anchor="start" x="1037.53" y="-1031.59" font-family="Helvetica,sans-Serif" font-style="italic" font-size="32.00" fill="#29235c">timestamp</text>
<text text-anchor="start" x="1185.09" y="-1031.59" font-family="Helvetica,sans-Serif" font-size="32.00" fill="#29235c"> </text>
<text text-anchor="start" x="1193.98" y="-1031.59" font-family="Helvetica,sans-Serif" font-weight="bold" font-size="32.00" fill="#29235c">(!)</text>
<polygon fill="none" stroke="#29235c" stroke-width="2" points="742.18,-1009.39 742.18,-1551.39 1236.18,-1551.39 1236.18,-1009.39 742.18,-1009.39"/>
</g>
<!-- friendships&#45;&gt;users -->
<!-- friendships&#45;&gt;users -->
<g id="edge2" class="edge">
<title>friendships:e&#45;&gt;users:w</title>
<path fill="none" stroke="#29235c" stroke-width="3" d="M513.23,-1400.39C614.93,-1400.39 635.66,-1456.47 731.98,-1460.19"/>
<polygon fill="#29235c" stroke="#29235c" stroke-width="3" points="732.12,-1463.7 742.18,-1460.39 732.25,-1456.7 732.12,-1463.7"/>
<text text-anchor="middle" x="733.29" y="-1469.99" font-family="Helvetica,sans-Serif" font-size="32.00" fill="#29235c">1</text>
<text text-anchor="middle" x="507.01" y="-1409.99" font-family="Helvetica,sans-Serif" font-size="32.00" fill="#29235c">*</text>
</g>
<!-- friendships&#45;&gt;users -->
<!-- friendships&#45;&gt;users -->
<g id="edge4" class="edge">
<title>friendships:e&#45;&gt;users:w</title>
<path fill="none" stroke="#29235c" stroke-width="3" d="M513.23,-1340.39C624.64,-1340.39 627.24,-1453.23 732.06,-1460.06"/>
<polygon fill="#29235c" stroke="#29235c" stroke-width="3" points="732.07,-1463.57 742.18,-1460.39 732.3,-1456.57 732.07,-1463.57"/>
<text text-anchor="middle" x="751.07" y="-1469.99" font-family="Helvetica,sans-Serif" font-size="32.00" fill="#29235c">1</text>
<text text-anchor="middle" x="507.01" y="-1349.99" font-family="Helvetica,sans-Serif" font-size="32.00" fill="#29235c">*</text>
</g>
<!-- groups -->
<g id="groups" class="node">
<title>groups</title>
<ellipse fill="none" stroke="black" stroke-width="0" cx="989.18" cy="-257.39" rx="281.36" ry="257.27"/>
<polygon fill="#1d71b8" stroke="transparent" points="792.18,-377.39 792.18,-437.39 1186.18,-437.39 1186.18,-377.39 792.18,-377.39"/>
<polygon fill="none" stroke="#29235c" points="792.18,-377.39 792.18,-437.39 1186.18,-437.39 1186.18,-377.39 792.18,-377.39"/>
<text text-anchor="start" x="878.03" y="-398.59" font-family="Helvetica,sans-Serif" font-weight="bold" font-size="32.00" fill="#ffffff"> &#160;&#160;&#160;&#160;&#160;&#160;groups &#160;&#160;&#160;&#160;&#160;&#160;</text>
<polygon fill="#e7e2dd" stroke="transparent" points="792.18,-317.39 792.18,-377.39 1186.18,-377.39 1186.18,-317.39 792.18,-317.39"/>
<polygon fill="none" stroke="#29235c" points="792.18,-317.39 792.18,-377.39 1186.18,-377.39 1186.18,-317.39 792.18,-317.39"/>
<text text-anchor="start" x="803.18" y="-338.59" font-family="Helvetica,sans-Serif" font-weight="bold" font-size="32.00" fill="#29235c">id</text>
<text text-anchor="start" x="828.07" y="-338.59" font-family="Helvetica,sans-Serif" font-size="32.00" fill="#29235c"> &#160;&#160;&#160;</text>
<text text-anchor="start" x="1059.66" y="-338.59" font-family="Helvetica,sans-Serif" font-style="italic" font-size="32.00" fill="#29235c">serial</text>
<text text-anchor="start" x="1136.09" y="-338.59" font-family="Helvetica,sans-Serif" font-size="32.00" fill="#29235c"> </text>
<text text-anchor="start" x="1144.98" y="-338.59" font-family="Helvetica,sans-Serif" font-weight="bold" font-size="32.00" fill="#29235c">(!)</text>
<polygon fill="#e7e2dd" stroke="transparent" points="792.18,-257.39 792.18,-317.39 1186.18,-317.39 1186.18,-257.39 792.18,-257.39"/>
<polygon fill="none" stroke="#29235c" points="792.18,-257.39 792.18,-317.39 1186.18,-317.39 1186.18,-257.39 792.18,-257.39"/>
<text text-anchor="start" x="803.18" y="-277.59" font-family="Helvetica,sans-Serif" font-size="32.00" fill="#29235c">name &#160;&#160;&#160;</text>
<text text-anchor="start" x="954.74" y="-278.59" font-family="Helvetica,sans-Serif" font-style="italic" font-size="32.00" fill="#29235c">varchar(100)</text>
<text text-anchor="start" x="1136.09" y="-278.59" font-family="Helvetica,sans-Serif" font-size="32.00" fill="#29235c"> </text>
<text text-anchor="start" x="1144.98" y="-278.59" font-family="Helvetica,sans-Serif" font-weight="bold" font-size="32.00" fill="#29235c">(!)</text>
<polygon fill="#e7e2dd" stroke="transparent" points="792.18,-197.39 792.18,-257.39 1186.18,-257.39 1186.18,-197.39 792.18,-197.39"/>
<polygon fill="none" stroke="#29235c" points="792.18,-197.39 792.18,-257.39 1186.18,-257.39 1186.18,-197.39 792.18,-197.39"/>
<text text-anchor="start" x="803.18" y="-217.59" font-family="Helvetica,sans-Serif" font-size="32.00" fill="#29235c">description &#160;&#160;&#160;</text>
<text text-anchor="start" x="994.01" y="-218.59" font-family="Helvetica,sans-Serif" font-style="italic" font-size="32.00" fill="#29235c">varchar(500)</text>
<polygon fill="#e7e2dd" stroke="transparent" points="792.18,-137.39 792.18,-197.39 1186.18,-197.39 1186.18,-137.39 792.18,-137.39"/>
<polygon fill="none" stroke="#29235c" points="792.18,-137.39 792.18,-197.39 1186.18,-197.39 1186.18,-137.39 792.18,-137.39"/>
<text text-anchor="start" x="803.18" y="-157.59" font-family="Helvetica,sans-Serif" font-size="32.00" fill="#29235c">picture_url &#160;&#160;&#160;</text>
<text text-anchor="start" x="993.84" y="-158.59" font-family="Helvetica,sans-Serif" font-style="italic" font-size="32.00" fill="#29235c">varchar(500)</text>
<polygon fill="#e7e2dd" stroke="transparent" points="792.18,-77.39 792.18,-137.39 1186.18,-137.39 1186.18,-77.39 792.18,-77.39"/>
<polygon fill="none" stroke="#29235c" points="792.18,-77.39 792.18,-137.39 1186.18,-137.39 1186.18,-77.39 792.18,-77.39"/>
<text text-anchor="start" x="802.81" y="-97.59" font-family="Helvetica,sans-Serif" font-size="32.00" fill="#29235c">created_at &#160;&#160;&#160;</text>
<text text-anchor="start" x="988.86" y="-98.59" font-family="Helvetica,sans-Serif" font-style="italic" font-size="32.00" fill="#29235c">timestamp</text>
<text text-anchor="start" x="1136.41" y="-98.59" font-family="Helvetica,sans-Serif" font-size="32.00" fill="#29235c"> </text>
<text text-anchor="start" x="1145.31" y="-98.59" font-family="Helvetica,sans-Serif" font-weight="bold" font-size="32.00" fill="#29235c">(!)</text>
<polygon fill="none" stroke="#29235c" stroke-width="2" points="791.18,-76.39 791.18,-438.39 1187.18,-438.39 1187.18,-76.39 791.18,-76.39"/>
</g>
<!-- messages -->
<g id="messages" class="node">
<title>messages</title>
<ellipse fill="none" stroke="black" stroke-width="0" cx="301.23" cy="-1860.39" rx="281.36" ry="214.92"/>
<polygon fill="#1d71b8" stroke="transparent" points="104.23,-1950.39 104.23,-2010.39 498.23,-2010.39 498.23,-1950.39 104.23,-1950.39"/>
<polygon fill="none" stroke="#29235c" points="104.23,-1950.39 104.23,-2010.39 498.23,-2010.39 498.23,-1950.39 104.23,-1950.39"/>
<text text-anchor="start" x="166.07" y="-1971.59" font-family="Helvetica,sans-Serif" font-weight="bold" font-size="32.00" fill="#ffffff"> &#160;&#160;&#160;&#160;&#160;&#160;messages &#160;&#160;&#160;&#160;&#160;&#160;</text>
<polygon fill="#e7e2dd" stroke="transparent" points="104.23,-1890.39 104.23,-1950.39 498.23,-1950.39 498.23,-1890.39 104.23,-1890.39"/>
<polygon fill="none" stroke="#29235c" points="104.23,-1890.39 104.23,-1950.39 498.23,-1950.39 498.23,-1890.39 104.23,-1890.39"/>
<text text-anchor="start" x="115.23" y="-1911.59" font-family="Helvetica,sans-Serif" font-weight="bold" font-size="32.00" fill="#29235c">id</text>
<text text-anchor="start" x="140.12" y="-1911.59" font-family="Helvetica,sans-Serif" font-size="32.00" fill="#29235c"> &#160;&#160;&#160;</text>
<text text-anchor="start" x="371.7" y="-1911.59" font-family="Helvetica,sans-Serif" font-style="italic" font-size="32.00" fill="#29235c">serial</text>
<text text-anchor="start" x="448.14" y="-1911.59" font-family="Helvetica,sans-Serif" font-size="32.00" fill="#29235c"> </text>
<text text-anchor="start" x="457.03" y="-1911.59" font-family="Helvetica,sans-Serif" font-weight="bold" font-size="32.00" fill="#29235c">(!)</text>
<polygon fill="#e7e2dd" stroke="transparent" points="104.23,-1830.39 104.23,-1890.39 498.23,-1890.39 498.23,-1830.39 104.23,-1830.39"/>
<polygon fill="none" stroke="#29235c" points="104.23,-1830.39 104.23,-1890.39 498.23,-1890.39 498.23,-1830.39 104.23,-1830.39"/>
<text text-anchor="start" x="115.23" y="-1850.59" font-family="Helvetica,sans-Serif" font-size="32.00" fill="#29235c">content &#160;&#160;&#160;</text>
<text text-anchor="start" x="266.79" y="-1851.59" font-family="Helvetica,sans-Serif" font-style="italic" font-size="32.00" fill="#29235c">varchar(500)</text>
<text text-anchor="start" x="448.14" y="-1851.59" font-family="Helvetica,sans-Serif" font-size="32.00" fill="#29235c"> </text>
<text text-anchor="start" x="457.03" y="-1851.59" font-family="Helvetica,sans-Serif" font-weight="bold" font-size="32.00" fill="#29235c">(!)</text>
<polygon fill="#e7e2dd" stroke="transparent" points="104.23,-1770.39 104.23,-1830.39 498.23,-1830.39 498.23,-1770.39 104.23,-1770.39"/>
<polygon fill="none" stroke="#29235c" points="104.23,-1770.39 104.23,-1830.39 498.23,-1830.39 498.23,-1770.39 104.23,-1770.39"/>
<text text-anchor="start" x="115.23" y="-1790.59" font-family="Helvetica,sans-Serif" font-size="32.00" fill="#29235c">user_id &#160;&#160;&#160;</text>
<text text-anchor="start" x="350.33" y="-1791.59" font-family="Helvetica,sans-Serif" font-style="italic" font-size="32.00" fill="#29235c">integer</text>
<text text-anchor="start" x="448.14" y="-1791.59" font-family="Helvetica,sans-Serif" font-size="32.00" fill="#29235c"> </text>
<text text-anchor="start" x="457.03" y="-1791.59" font-family="Helvetica,sans-Serif" font-weight="bold" font-size="32.00" fill="#29235c">(!)</text>
<polygon fill="#e7e2dd" stroke="transparent" points="104.23,-1710.39 104.23,-1770.39 498.23,-1770.39 498.23,-1710.39 104.23,-1710.39"/>
<polygon fill="none" stroke="#29235c" points="104.23,-1710.39 104.23,-1770.39 498.23,-1770.39 498.23,-1710.39 104.23,-1710.39"/>
<text text-anchor="start" x="114.86" y="-1730.59" font-family="Helvetica,sans-Serif" font-size="32.00" fill="#29235c">created_at &#160;&#160;&#160;</text>
<text text-anchor="start" x="300.9" y="-1731.59" font-family="Helvetica,sans-Serif" font-style="italic" font-size="32.00" fill="#29235c">timestamp</text>
<text text-anchor="start" x="448.46" y="-1731.59" font-family="Helvetica,sans-Serif" font-size="32.00" fill="#29235c"> </text>
<text text-anchor="start" x="457.35" y="-1731.59" font-family="Helvetica,sans-Serif" font-weight="bold" font-size="32.00" fill="#29235c">(!)</text>
<polygon fill="none" stroke="#29235c" stroke-width="2" points="103.23,-1709.39 103.23,-2011.39 499.23,-2011.39 499.23,-1709.39 103.23,-1709.39"/>
</g>
<!-- messages&#45;&gt;users -->
<!-- messages&#45;&gt;users -->
<g id="edge6" class="edge">
<title>messages:e&#45;&gt;users:w</title>
<path fill="none" stroke="#29235c" stroke-width="3" d="M499.23,-1800.39C681.51,-1800.39 561.11,-1472.89 732.16,-1460.73"/>
<polygon fill="#29235c" stroke="#29235c" stroke-width="3" points="732.31,-1464.23 742.18,-1460.39 732.06,-1457.24 732.31,-1464.23"/>
<text text-anchor="middle" x="733.29" y="-1431.59" font-family="Helvetica,sans-Serif" font-size="32.00" fill="#29235c">1</text>
<text text-anchor="middle" x="493.01" y="-1809.99" font-family="Helvetica,sans-Serif" font-size="32.00" fill="#29235c">*</text>
</g>
<!-- roles -->
<g id="roles" class="node">
<title>roles</title>
<ellipse fill="none" stroke="black" stroke-width="0" cx="1631.17" cy="-1460.39" rx="255.03" ry="130.22"/>
<polygon fill="#1d71b8" stroke="transparent" points="1453.17,-1490.39 1453.17,-1550.39 1810.17,-1550.39 1810.17,-1490.39 1453.17,-1490.39"/>
<polygon fill="none" stroke="#29235c" points="1453.17,-1490.39 1453.17,-1550.39 1810.17,-1550.39 1810.17,-1490.39 1453.17,-1490.39"/>
<text text-anchor="start" x="1534.76" y="-1511.59" font-family="Helvetica,sans-Serif" font-weight="bold" font-size="32.00" fill="#ffffff"> &#160;&#160;&#160;&#160;&#160;&#160;roles &#160;&#160;&#160;&#160;&#160;&#160;</text>
<polygon fill="#e7e2dd" stroke="transparent" points="1453.17,-1430.39 1453.17,-1490.39 1810.17,-1490.39 1810.17,-1430.39 1453.17,-1430.39"/>
<polygon fill="none" stroke="#29235c" points="1453.17,-1430.39 1453.17,-1490.39 1810.17,-1490.39 1810.17,-1430.39 1453.17,-1430.39"/>
<text text-anchor="start" x="1464.17" y="-1451.59" font-family="Helvetica,sans-Serif" font-weight="bold" font-size="32.00" fill="#29235c">id</text>
<text text-anchor="start" x="1489.06" y="-1451.59" font-family="Helvetica,sans-Serif" font-size="32.00" fill="#29235c"> &#160;&#160;&#160;</text>
<text text-anchor="start" x="1683.65" y="-1451.59" font-family="Helvetica,sans-Serif" font-style="italic" font-size="32.00" fill="#29235c">serial</text>
<text text-anchor="start" x="1760.08" y="-1451.59" font-family="Helvetica,sans-Serif" font-size="32.00" fill="#29235c"> </text>
<text text-anchor="start" x="1768.97" y="-1451.59" font-family="Helvetica,sans-Serif" font-weight="bold" font-size="32.00" fill="#29235c">(!)</text>
<polygon fill="#e7e2dd" stroke="transparent" points="1453.17,-1370.39 1453.17,-1430.39 1810.17,-1430.39 1810.17,-1370.39 1453.17,-1370.39"/>
<polygon fill="none" stroke="#29235c" points="1453.17,-1370.39 1453.17,-1430.39 1810.17,-1430.39 1810.17,-1370.39 1453.17,-1370.39"/>
<text text-anchor="start" x="1463.88" y="-1390.59" font-family="Helvetica,sans-Serif" font-size="32.00" fill="#29235c">name &#160;&#160;&#160;</text>
<text text-anchor="start" x="1578.95" y="-1391.59" font-family="Helvetica,sans-Serif" font-style="italic" font-size="32.00" fill="#29235c">varchar(100)</text>
<text text-anchor="start" x="1760.3" y="-1391.59" font-family="Helvetica,sans-Serif" font-size="32.00" fill="#29235c"> </text>
<text text-anchor="start" x="1769.19" y="-1391.59" font-family="Helvetica,sans-Serif" font-weight="bold" font-size="32.00" fill="#29235c">(!)</text>
<polygon fill="none" stroke="#29235c" stroke-width="2" points="1451.67,-1369.39 1451.67,-1551.39 1810.67,-1551.39 1810.67,-1369.39 1451.67,-1369.39"/>
</g>
<!-- user_groups -->
<g id="user_groups" class="node">
<title>user_groups</title>
<ellipse fill="none" stroke="black" stroke-width="0" cx="301.23" cy="-679.39" rx="231.86" ry="172.57"/>
<polygon fill="#1d71b8" stroke="transparent" points="139.23,-739.39 139.23,-799.39 463.23,-799.39 463.23,-739.39 139.23,-739.39"/>
<polygon fill="none" stroke="#29235c" points="139.23,-739.39 139.23,-799.39 463.23,-799.39 463.23,-739.39 139.23,-739.39"/>
<text text-anchor="start" x="150.06" y="-760.59" font-family="Helvetica,sans-Serif" font-weight="bold" font-size="32.00" fill="#ffffff"> &#160;&#160;&#160;&#160;&#160;&#160;user_groups &#160;&#160;&#160;&#160;&#160;&#160;</text>
<polygon fill="#e7e2dd" stroke="transparent" points="139.23,-679.39 139.23,-739.39 463.23,-739.39 463.23,-679.39 139.23,-679.39"/>
<polygon fill="none" stroke="#29235c" points="139.23,-679.39 139.23,-739.39 463.23,-739.39 463.23,-679.39 139.23,-679.39"/>
<text text-anchor="start" x="150.23" y="-700.59" font-family="Helvetica,sans-Serif" font-weight="bold" font-size="32.00" fill="#29235c">id</text>
<text text-anchor="start" x="175.12" y="-700.59" font-family="Helvetica,sans-Serif" font-size="32.00" fill="#29235c"> &#160;&#160;&#160;</text>
<text text-anchor="start" x="336.7" y="-700.59" font-family="Helvetica,sans-Serif" font-style="italic" font-size="32.00" fill="#29235c">serial</text>
<text text-anchor="start" x="413.14" y="-700.59" font-family="Helvetica,sans-Serif" font-size="32.00" fill="#29235c"> </text>
<text text-anchor="start" x="422.03" y="-700.59" font-family="Helvetica,sans-Serif" font-weight="bold" font-size="32.00" fill="#29235c">(!)</text>
<polygon fill="#e7e2dd" stroke="transparent" points="139.23,-619.39 139.23,-679.39 463.23,-679.39 463.23,-619.39 139.23,-619.39"/>
<polygon fill="none" stroke="#29235c" points="139.23,-619.39 139.23,-679.39 463.23,-679.39 463.23,-619.39 139.23,-619.39"/>
<text text-anchor="start" x="150.23" y="-639.59" font-family="Helvetica,sans-Serif" font-size="32.00" fill="#29235c">user_id &#160;&#160;&#160;</text>
<text text-anchor="start" x="315.33" y="-640.59" font-family="Helvetica,sans-Serif" font-style="italic" font-size="32.00" fill="#29235c">integer</text>
<text text-anchor="start" x="413.14" y="-640.59" font-family="Helvetica,sans-Serif" font-size="32.00" fill="#29235c"> </text>
<text text-anchor="start" x="422.03" y="-640.59" font-family="Helvetica,sans-Serif" font-weight="bold" font-size="32.00" fill="#29235c">(!)</text>
<polygon fill="#e7e2dd" stroke="transparent" points="139.23,-559.39 139.23,-619.39 463.23,-619.39 463.23,-559.39 139.23,-559.39"/>
<polygon fill="none" stroke="#29235c" points="139.23,-559.39 139.23,-619.39 463.23,-619.39 463.23,-559.39 139.23,-559.39"/>
<text text-anchor="start" x="150.23" y="-579.59" font-family="Helvetica,sans-Serif" font-size="32.00" fill="#29235c">group_id &#160;&#160;&#160;</text>
<text text-anchor="start" x="315.33" y="-580.59" font-family="Helvetica,sans-Serif" font-style="italic" font-size="32.00" fill="#29235c">integer</text>
<text text-anchor="start" x="413.14" y="-580.59" font-family="Helvetica,sans-Serif" font-size="32.00" fill="#29235c"> </text>
<text text-anchor="start" x="422.03" y="-580.59" font-family="Helvetica,sans-Serif" font-weight="bold" font-size="32.00" fill="#29235c">(!)</text>
<polygon fill="none" stroke="#29235c" stroke-width="2" points="138.23,-558.39 138.23,-800.39 464.23,-800.39 464.23,-558.39 138.23,-558.39"/>
</g>
<!-- user_groups&#45;&gt;groups -->
<!-- user_groups&#45;&gt;groups -->
<g id="edge10" class="edge">
<title>user_groups:e&#45;&gt;groups:w</title>
<path fill="none" stroke="#29235c" stroke-width="3" d="M464.23,-589.39C641.57,-589.39 611.63,-356.52 781.08,-347.65"/>
<polygon fill="#29235c" stroke="#29235c" stroke-width="3" points="781.27,-351.14 791.18,-347.39 781.09,-344.15 781.27,-351.14"/>
<text text-anchor="middle" x="782.29" y="-318.59" font-family="Helvetica,sans-Serif" font-size="32.00" fill="#29235c">1</text>
<text text-anchor="middle" x="458.01" y="-598.99" font-family="Helvetica,sans-Serif" font-size="32.00" fill="#29235c">*</text>
</g>
<!-- user_groups&#45;&gt;users -->
<!-- user_groups&#45;&gt;users -->
<g id="edge8" class="edge">
<title>user_groups:e&#45;&gt;users:w</title>
<path fill="none" stroke="#29235c" stroke-width="3" d="M464.23,-649.39C651.3,-649.39 555.3,-1431.35 732.14,-1459.6"/>
<polygon fill="#29235c" stroke="#29235c" stroke-width="3" points="731.94,-1463.1 742.18,-1460.39 732.48,-1456.12 731.94,-1463.1"/>
<text text-anchor="middle" x="751.07" y="-1431.59" font-family="Helvetica,sans-Serif" font-size="32.00" fill="#29235c">1</text>
<text text-anchor="middle" x="458.01" y="-658.99" font-family="Helvetica,sans-Serif" font-size="32.00" fill="#29235c">*</text>
</g>
<!-- users&#45;&gt;roles -->
<!-- users&#45;&gt;roles -->
<g id="edge12" class="edge">
<title>users:e&#45;&gt;roles:w</title>
<path fill="none" stroke="#29235c" stroke-width="3" d="M1236.18,-1100.39C1419.31,-1100.39 1271.3,-1447.15 1442.13,-1460.02"/>
<polygon fill="#29235c" stroke="#29235c" stroke-width="3" points="1442.05,-1463.52 1452.17,-1460.39 1442.31,-1456.52 1442.05,-1463.52"/>
<text text-anchor="middle" x="1443.28" y="-1469.99" font-family="Helvetica,sans-Serif" font-size="32.00" fill="#29235c">1</text>
<text text-anchor="middle" x="1229.96" y="-1109.99" font-family="Helvetica,sans-Serif" font-size="32.00" fill="#29235c">*</text>
</g>
</g>
</svg>
